<?xml version="1.0" encoding="utf-8"?>
<!-- Generator: Adobe Illustrator 21.0.0, SVG Export Plug-In . SVG Version: 6.00 Build 0)  -->
<svg version="1.1" id="Layer_1" xmlns="http://www.w3.org/2000/svg" xmlns:xlink="http://www.w3.org/1999/xlink" x="0px" y="0px"
	 viewBox="0 0 135.5 91.3" style="enable-background:new 0 0 135.5 91.3;" xml:space="preserve">
<style type="text/css">
	.st0{fill:#B01F24;}
	.st1{fill:#FFFFFF;}
</style>
<path class="st0" d="M42,21.5c-3.8,0-6.4-2.8-6.4-6.6s2.7-6.6,6.4-6.6c3.9,0,6.5,2.8,6.5,6.6C48.5,18.9,45.8,21.5,42,21.5z"/>
<g>
	<path class="st1" d="M5.1,58.5c2.4,1.4,6.8,3,10.6,3c4.2,0,6.3-1.8,6.3-4.6s-1.5-4.2-6.5-6.3C7,47.2,4,42.4,4,37.4
		c0-8.1,6.5-14.3,16.6-14.3c4.6,0,8.6,1.1,11.2,2.5l-2.3,8.5c-2-1.1-5.1-2.4-8.5-2.4c-3.7,0-5.6,1.9-5.6,4.3c0,2.5,1.7,3.8,6.9,6
		c7.6,3.2,11.2,7.6,11.2,13.8c0,8.6-6.5,14.3-17.8,14.3c-5,0-9.8-1.2-12.8-3L5.1,58.5z"/>
</g>
<path class="st1" d="M48.1,22.9v47.5h-12V22.9H48.1z"/>
<g>
	<path class="st1" d="M104.9,50.6c0.3,7.7,5.9,10.8,12.4,10.8c4.5,0,8-0.8,11.1-1.9l1.7,8.3c-3.7,1.6-9,2.6-14.6,2.6
		c-14,0-21.9-8.8-21.9-22.8c0-13,7.5-24.2,20.7-24.2c11,0,18.1,7.8,18.1,22.4c0,1.8-0.1,3.5-0.3,4.8
		C132.1,50.6,104.9,50.6,104.9,50.6z M121.2,42.2c0.1-4.7-1.8-10.5-7.7-10.5c-5.8,0-8.2,6-8.5,10.5H121.2z"/>
</g>
<path class="st1" d="M88.2,33.1C83.7,25,76.1,24,72.1,23.6c-4-0.3-9.5,0.5-9.5,0.5v-1.5H52.3v63.2h10l0.1-17
	c3.8,2.1,13.4,3.7,21.3-2.4c6.6-5.1,7.3-14.8,7.3-14.8S92.8,41.3,88.2,33.1z M80.3,50c0,0-0.2,7.5-4.8,11.1c-6.5,3.7-12.2-1-13-8.8
	c-0.6-5.6,0.1-18.7,0.1-18.7s10.6-3.3,15.3,3.6C81.3,42.1,80.3,50,80.3,50z"/>
</svg>
